<?xml version="1.0" ?><svg height="64px" id="SVGRoot" version="1.1" viewBox="0 0 64 64" width="64px" xmlns="http://www.w3.org/2000/svg" xmlns:cc="http://creativecommons.org/ns#" xmlns:dc="http://purl.org/dc/elements/1.1/" xmlns:inkscape="http://www.inkscape.org/namespaces/inkscape" xmlns:rdf="http://www.w3.org/1999/02/22-rdf-syntax-ns#" xmlns:sodipodi="http://sodipodi.sourceforge.net/DTD/sodipodi-0.dtd" xmlns:svg="http://www.w3.org/2000/svg"><defs id="defs3848"/><g id="layer1"><g id="g4477" style="clip-rule:evenodd;fill-rule:evenodd;image-rendering:optimizeQuality;shape-rendering:geometricPrecision;text-rendering:geometricPrecision;stroke:#000000" transform="matrix(0.09599676,0,0,0.09599676,-56.374006,-323.07619)"><g id="g4420" style="stroke:#000000"><rect class="fil0 str0" height="423.9809" id="rect35" style="fill:none;stroke:#000000;stroke-width:20.83403778;stroke-linecap:round;stroke-linejoin:round;stroke-miterlimit:4;stroke-dasharray:none" transform="rotate(-15.688492)" width="341.85266" x="-365.85721" y="3536.9443"/><polyline class="fil0 str0" id="polyline37" points="1020,3529 1237,3570 1156,3986 842,3925 " style="fill:none;stroke:#000000;stroke-width:20.83403778;stroke-linecap:round;stroke-linejoin:round;stroke-miterlimit:4;stroke-dasharray:none"/><polyline class="fil0 str0" id="polyline39" points="689,3807 760,3713 833,3742 893,3627 1011,3688 " style="fill:none;stroke:#000000;stroke-width:20.83460045;stroke-linecap:round;stroke-linejoin:round"/><path class="fil0 str1" d="m 787,3604 c 11,-3 22,3 25,14 3,11 -3,22 -14,25 -11,3 -22,-3 -25,-14 -3,-11 3,-22 14,-25 z" id="path41" style="fill:none;stroke:#000000;stroke-width:20.83460045"/><line class="fil0 str1" id="line43" style="fill:none;stroke:#000000;stroke-width:20.83460045" x1="704" x2="1038" y1="3868" y2="3774"/><line class="fil0 str0" id="line45" style="fill:none;stroke:#000000;stroke-width:20.83460045;stroke-linecap:round;stroke-linejoin:round" x1="971" x2="1119" y1="3889" y2="3920"/><line class="fil0 str0" id="line47" style="fill:none;stroke:#000000;stroke-width:20.83460045;stroke-linecap:round;stroke-linejoin:round" x1="1033" x2="1181" y1="3598" y2="3629"/></g></g></g></svg>